<svg height="512pt" viewBox="0 0 512 512.01893" width="512pt" xmlns="http://www.w3.org/2000/svg"><path d="m255.667969 366.953125v76.796875h-247.125v-426.238281c.007812-4.050781 2.863281-7.539063 6.835937-8.347657 3.96875-.804687 7.960938 1.292969 9.546875 5.019532l59.734375 163.667968c.449219 1.132813 1.34375 2.027344 2.476563 2.476563l106.921875 41.128906c1.402344.527344 2.410156 1.765625 2.644531 3.242188l16.46875 90.371093c.105469.71875.398437 1.394532.855469 1.960938zm0 0" fill="#4e342e"/><path d="m469.34375 202.429688v241.320312h-221.867188v-241.40625l19.457032-14.59375 18.773437-14.078125 72.703125-54.527344zm0 0" fill="#9e9e9e"/><path d="m452.277344 187.75v256h-196.265625v-241.40625l18.644531-14.59375 17.988281-14.078125 69.671875-54.1875zm0 0" fill="#f5f5f5"/><path d="m306.851562 332.820312h17.066407c9.425781 0 17.066406 7.640626 17.066406 17.066407v93.863281h-51.199219v-93.863281c0-9.425781 7.640625-17.066407 17.066406-17.066407zm0 0" fill="#ff5722"/><path d="m202.933594 81.085938-28.84375 35.15625c-1.628906 2.0625-4.113282 3.257812-6.742188 3.242187h-50.941406c-3.546875.035156-6.757812-2.09375-8.109375-5.375l-13.824219-33.707031c-.914062-2.269532-.789062-4.828125.34375-6.996094l13.226563-26.027344c1.535156-2.90625 4.5625-4.714844 7.851562-4.695312h67.667969c3.269531-.039063 6.28125 1.78125 7.765625 4.695312l12.542969 24.574219c1.554687 2.957031 1.183594 6.554687-.9375 9.132813zm0 0" fill="#4e342e"/><path d="m230.410156 366.953125v76.796875h-221.867187v-405.246094l50.859375 139.347656c.449218 1.132813 1.34375 2.027344 2.472656 2.476563l106.925781 41.128906c1.398438.527344 2.410157 1.765625 2.644531 3.242188l16.46875 90.371093c.105469.71875.398438 1.394532.851563 1.960938zm0 0" fill="#795548"/><path d="m177.675781 81.085938-28.84375 35.15625c-1.628906 2.0625-4.117187 3.257812-6.742187 3.242187h-25.683594c-3.546875.035156-6.757812-2.09375-8.109375-5.375l-13.824219-33.707031c-.914062-2.269532-.789062-4.828125.34375-6.996094l13.226563-26.027344c1.535156-2.90625 4.5625-4.714844 7.851562-4.695312h42.410157c3.269531-.039063 6.28125 1.78125 7.765624 4.695312l12.542969 24.574219c1.550781 2.957031 1.183594 6.554687-.9375 9.132813zm0 0" fill="#795548"/><path d="m315.742188 153.132812-46.25 34.617188h-17.40625c-3.425782.039062-6.585938-1.835938-8.191407-4.863281l-12.460937-24.148438c-1.863282-3.738281-.828125-8.277343 2.476562-10.835937l34.132813-26.453125c3.355469-2.640625 8.078125-2.640625 11.433593 0l32.9375 25.511719c1.9375 1.492187 3.148438 3.734374 3.328126 6.171874zm0 0" fill="#4e342e"/><path d="m315.488281 58.386719-5.632812 20.820312c-1.171875 3.710938-4.640625 6.210938-8.535157 6.144531h-15.957031c-2.300781.015626-4.527343-.835937-6.226562-2.390624l-20.566407-18.941407c-2.039062-1.851562-2.945312-4.644531-2.390624-7.339843l5.292968-24.492188c.765625-2.761719 2.792969-4.996094 5.46875-6.023438 2.675782-1.023437 5.679688-.722656 8.097656.820313l36.777344 22.613281c3.039063 1.789063 4.535156 5.371094 3.671875 8.789063zm0 0" fill="#795548"/><g fill="#02a9f4"><path d="m392.183594 332.820312h42.667968c4.710938 0 8.535157 3.820313 8.535157 8.53125v34.132813c0 4.714844-3.824219 8.535156-8.535157 8.535156h-42.667968c-4.710938 0-8.53125-3.820312-8.53125-8.535156v-34.132813c0-4.710937 3.820312-8.53125 8.53125-8.53125zm0 0"/><path d="m392.183594 247.484375h42.667968c4.710938 0 8.535157 3.820313 8.535157 8.535156v34.132813c0 4.710937-3.824219 8.53125-8.535157 8.53125h-42.667968c-4.710938 0-8.53125-3.820313-8.53125-8.53125v-34.132813c0-4.714843 3.820312-8.535156 8.53125-8.535156zm0 0"/><path d="m298.316406 247.484375h42.667969c4.714844 0 8.535156 3.820313 8.535156 8.535156v34.132813c0 4.710937-3.820312 8.53125-8.535156 8.53125h-42.667969c-4.710937 0-8.53125-3.820313-8.53125-8.53125v-34.132813c0-4.714843 3.820313-8.535156 8.53125-8.535156zm0 0"/></g><path d="m504.183594 430.867188v76.96875c-.003906 1.121093-.460938 2.195312-1.261719 2.980468s-1.882813 1.21875-3.003906 1.203125h-486.398438c-1.121093.015625-2.203125-.417969-3.003906-1.203125-.804687-.785156-1.257813-1.859375-1.265625-2.980468v-76.96875c.007812-1.121094.460938-2.195313 1.265625-2.980469.800781-.785157 1.882813-1.21875 3.003906-1.203125h486.398438c1.121093-.015625 2.203125.417968 3.003906 1.203125.800781.785156 1.257813 1.859375 1.261719 2.980469zm0 0" fill="#2e7d32"/><path d="m503.476562 430.867188v38.484374h-494.933593v-38.484374c.007812-1.121094.460937-2.195313 1.261719-2.980469.800781-.785157 1.882812-1.21875 3.003906-1.203125h486.402344c1.121093-.015625 2.203124.417968 3.003906 1.203125.800781.785156 1.253906 1.859375 1.261718 2.980469zm0 0" fill="#558b30"/><path d="m469.34375 463.328125v46.179687c0 1.382813-1.808594 2.511719-4.113281 2.511719h-444.039063c-2.304687 0-4.113281-1.128906-4.113281-2.511719v-46.179687c0-1.382813 1.808594-2.507813 4.113281-2.507813h444.039063c2.304687 0 4.113281 1.125 4.113281 2.507813zm0 0" fill="#4caf50"/><path d="m469.34375 422.332031v38.488281h-469.3320312v-38.488281c.0039062-1.121093.4609372-2.191406 1.2617192-2.976562.800781-.785157 1.882812-1.21875 3.003906-1.203125h460.800781c1.121094-.015625 2.203125.417968 3.003906 1.203125.800781.785156 1.253907 1.855469 1.261719 2.976562zm0 0" fill="#8bc34a"/><path d="m499.269531 409.617188h-12.859375v-189.875l11.945313 8.96875c3.769531 2.828124 9.121093 2.066406 11.949219-1.707032 2.828124-3.769531 2.0625-9.117187-1.707032-11.945312l-24.507812-18.398438c-.566406-.558594-1.207032-1.039062-1.902344-1.425781l-110.457031-82.917969c-3.035157-2.273437-7.207031-2.273437-10.238281 0l-47.003907 35.25c-1.121093-2.898437-3.011719-5.441406-5.46875-7.355468l-32.921875-25.53125c-6.429687-4.988282-15.421875-4.988282-21.855468 0l-34.132813 26.496093c-6.570313 5.074219-8.59375 14.113281-4.8125 21.503907l12.433594 24.097656c3.035156 5.863281 9.09375 9.53125 15.691406 9.507812h6.101563l-24.574219 18.433594c-2.441407 1.828125-3.71875 4.820312-3.351563 7.847656.363282 3.023438 2.316406 5.628906 5.117188 6.824219 2.804687 1.199219 6.035156.808594 8.472656-1.019531l12.289062-9.214844v124.253906l-26.085937-31.257812-16.273437-89.277344c-.734376-4.457031-3.777344-8.191406-7.996094-9.804688l-105.128906-40.441406-59.222657-162.242187c-3.148437-7.507813-11.195312-11.714844-19.15625-10.011719-7.957031 1.585938-13.6640622 8.597656-13.6015622 16.710938v482.132812c0 3.394531 1.3476562 6.648438 3.7460932 9.050781 2.402344 2.398438 5.65625 3.75 9.050782 3.75h486.402344c7.066406 0 12.800781-5.730469 12.800781-12.800781v-76.859375c-.007813-7.035156-5.707031-12.734375-12.742188-12.742187zm-132.675781-279.808594 102.75 77.125v202.683594h-119.46875v-59.730469c0-14.140625-11.460938-25.601563-25.597656-25.601563h-17.066406c-14.140626 0-25.601563 11.460938-25.601563 25.601563v59.730469h-17.066406v-187.730469h42.667969c4.710937 0 8.53125-3.820313 8.53125-8.535157 0-4.710937-3.820313-8.53125-8.53125-8.53125h-40.621094l11.386718-8.535156h.21875c5.417969.027344 10.546876-2.4375 13.910157-6.679687l7.722656-9.730469zm-63.921875 279.808594-3.996094-4.792969v-54.9375c0-4.714844 3.820313-8.535157 8.535157-8.535157h17.066406c4.710937 0 8.53125 3.820313 8.53125 8.535157v59.730469zm-59.820313-230.664063-12.320312-24.300781 34.132812-26.453125c.136719-.117188.3125-.183594.492188-.179688.167969-.003906.332031.046875.472656.144531l33.003906 25.789063-19.863281 25.035156c-.148437.160157-.355469.246094-.574219.230469zm-166.152343 1.554687c1.3125 3.378907 3.988281 6.050782 7.371093 7.355469l104.664063 40.257813 15.957031 87.484375c.316406 2.371093 1.277344 4.609375 2.78125 6.46875l40.003906 47.964843v39.578126h-230.398437l-.171875-392.933594zm-59.621094 314.445313v-25.601563h179.199219c4.710937 0 8.53125-3.820312 8.53125-8.53125 0-4.714843-3.820313-8.535156-8.53125-8.535156h-179.199219v-25.601562h477.863281v25.601562h-145.066406c-4.710938 0-8.53125 3.820313-8.53125 8.535156 0 4.710938 3.820312 8.53125 8.53125 8.53125h145.066406v25.601563zm0 0"/><path d="m307.210938 452.285156h-68.269532c-4.710937 0-8.53125 3.820313-8.53125 8.535156 0 4.710938 3.820313 8.53125 8.53125 8.53125h68.269532c4.710937 0 8.53125-3.820312 8.53125-8.53125 0-4.714843-3.820313-8.535156-8.53125-8.535156zm0 0"/><path d="m116.386719 128.019531h50.9375c5.195312.015625 10.125-2.316406 13.414062-6.339843l28.765625-35.203126c4.261719-5.199218 5.042969-12.429687 1.988282-18.421874l-12.535157-24.515626c-2.945312-5.789062-8.902343-9.417968-15.394531-9.386718h-67.6875c-6.480469-.015625-12.417969 3.613281-15.359375 9.386718l-13.320313 25.976563c-2.238281 4.382813-2.457031 9.527344-.597656 14.085937l13.796875 33.75c2.65625 6.484376 8.984375 10.707032 15.992188 10.667969zm-.511719-76.800781 67.882812.066406 12.519532 24.398438-28.757813 35.199218c-.054687.046876-.125.070313-.195312.070313l-51.132813-.0625-13.78125-33.621094zm0 0"/><path d="m285.363281 93.886719h15.917969c7.761719.097656 14.632812-5.003907 16.792969-12.460938l5.648437-20.820312c1.878906-7.0625-1.160156-14.511719-7.441406-18.246094l-36.777344-22.628906c-4.957031-3.039063-11.074218-3.488281-16.417968-1.203125-5.03125 2.101562-8.730469 6.515625-9.925782 11.835937l-5.316406 24.492188c-1.222656 5.660156.671875 11.546875 4.964844 15.433593l20.53125 18.945313c3.277344 3.011719 7.574218 4.675781 12.023437 4.652344zm-15.699219-59.597657c.144532-.097656.320313-.144531.496094-.136718.140625-.003906.277344.035156.398438.109375l36.515625 22.46875-5.792969 20.089843-16.359375-.121093-20.378906-18.21875zm0 0"/><path d="m435.210938 324.285156h-42.667969c-9.425781 0-17.066407 7.640625-17.066407 17.066406v34.132813c0 9.425781 7.640626 17.066406 17.066407 17.066406h42.667969c9.425781 0 17.066406-7.640625 17.066406-17.066406v-34.132813c0-9.425781-7.640625-17.066406-17.066406-17.066406zm-42.667969 51.199219v-34.132813h42.667969v34.132813zm0 0"/><path d="m375.476562 256.019531v34.132813c0 9.425781 7.640626 17.066406 17.066407 17.066406h42.667969c9.425781 0 17.066406-7.640625 17.066406-17.066406v-34.132813c0-9.425781-7.640625-17.066406-17.066406-17.066406h-42.667969c-9.425781 0-17.066407 7.640625-17.066407 17.066406zm59.734376 34.132813h-42.667969v-34.132813h42.667969zm0 0"/><path d="m341.34375 238.953125h-42.667969c-9.425781 0-17.066406 7.640625-17.066406 17.066406v34.132813c0 9.425781 7.640625 17.066406 17.066406 17.066406h42.667969c9.425781 0 17.066406-7.640625 17.066406-17.066406v-34.132813c0-9.425781-7.640625-17.066406-17.066406-17.066406zm-42.667969 51.199219v-34.132813h42.667969v34.132813zm0 0"/><path d="m341.34375 221.886719h68.265625c4.714844 0 8.535156-3.820313 8.535156-8.535157 0-4.710937-3.820312-8.53125-8.535156-8.53125h-68.265625c-4.714844 0-8.535156 3.820313-8.535156 8.53125 0 4.714844 3.820312 8.535157 8.535156 8.535157zm0 0"/></svg>